<?xml version="1.0" encoding="utf-8"?>
<!-- Generator: Adobe Illustrator 13.0.0, SVG Export Plug-In . SVG Version: 6.00 Build 14948)  -->
<!DOCTYPE svg PUBLIC "-//W3C//DTD SVG 1.1//EN" "http://www.w3.org/Graphics/SVG/1.1/DTD/svg11.dtd">
<svg version="1.1" id="Layer_1" xmlns="http://www.w3.org/2000/svg" xmlns:xlink="http://www.w3.org/1999/xlink" x="0px" y="0px"
	 width="23px" height="43px" viewBox="0 0 23 43" enable-background="new 0 0 23 43" xml:space="preserve">
<path d="M22.461,42.714c0.389-0.392,0.389-1.024,0-1.417l0,0L2.662,21.499L22.458,1.703l0.003-0.002l-0.003,0.002
	c0.392-0.392,0.392-1.025,0.003-1.417l0,0c-0.393-0.39-1.025-0.39-1.417,0l0,0L0.539,20.793c-0.188,0.189-0.291,0.44-0.291,0.706
	l0,0c0,0.269,0.103,0.519,0.291,0.708l0,0l20.505,20.507c0.195,0.194,0.452,0.292,0.708,0.292l0,0
	C22.009,43.006,22.265,42.908,22.461,42.714L22.461,42.714z"/>
</svg>
