<?xml version="1.0" encoding="utf-8"?>
<!-- Generator: Adobe Illustrator 13.0.0, SVG Export Plug-In . SVG Version: 6.00 Build 14948)  -->
<!DOCTYPE svg PUBLIC "-//W3C//DTD SVG 1.1//EN" "http://www.w3.org/Graphics/SVG/1.1/DTD/svg11.dtd">
<svg version="1.1" id="Layer_1" xmlns="http://www.w3.org/2000/svg" xmlns:xlink="http://www.w3.org/1999/xlink" x="0px" y="0px"
	 width="18px" height="17px" viewBox="0 0 18 17" enable-background="new 0 0 18 17" xml:space="preserve">
<path d="M8.762,5.133L3,9.878v5.121c0,0.276,0.224,0.5,0.5,0.5l3.502-0.01c0.275,0,0.498-0.225,0.498-0.5v-2.99
	c0-0.276,0.224-0.5,0.5-0.5h2c0.275,0,0.5,0.224,0.5,0.5v2.988c-0.002,0.276,0.222,0.501,0.498,0.502c0,0,0.001,0,0.002,0l3.5,0.01
	c0.276,0,0.5-0.224,0.5-0.5V9.874L9.24,5.133C9.1,5.02,8.901,5.02,8.762,5.133z M17.862,8.357l-7.91-6.515
	c-0.554-0.455-1.353-0.455-1.906,0l-7.91,6.515c-0.16,0.132-0.182,0.368-0.05,0.528l0,0l0.797,0.969
	c0.132,0.16,0.368,0.183,0.528,0.051c0,0,0,0,0.001,0l7.351-6.054c0.139-0.113,0.338-0.113,0.478,0l7.351,6.054
	c0.159,0.132,0.396,0.109,0.528-0.05l0,0l0.797-0.969c0.131-0.16,0.107-0.396-0.052-0.527C17.863,8.358,17.863,8.358,17.862,8.357z"
	/>
</svg>
