<?xml version="1.0" encoding="utf-8"?>
<!-- Generator: Adobe Illustrator 13.0.0, SVG Export Plug-In . SVG Version: 6.00 Build 14948)  -->
<!DOCTYPE svg PUBLIC "-//W3C//DTD SVG 1.1//EN" "http://www.w3.org/Graphics/SVG/1.1/DTD/svg11.dtd">
<svg version="1.1" id="Layer_1" xmlns="http://www.w3.org/2000/svg" xmlns:xlink="http://www.w3.org/1999/xlink" x="0px" y="0px"
	 width="37px" height="25px" viewBox="0 0 37 25" enable-background="new 0 0 37 25" xml:space="preserve">
<path d="M0.379,12.502c0,0.267,0.103,0.516,0.291,0.707l11.185,11.184c0.195,0.196,0.452,0.294,0.708,0.294
	c0.257,0,0.513-0.098,0.708-0.294c0.392-0.392,0.392-1.024,0-1.416L2.794,12.499L13.269,2.024c0.392-0.392,0.392-1.025,0.002-1.417
	c-0.391-0.392-1.024-0.392-1.416,0L0.67,11.792C0.481,11.98,0.379,12.232,0.379,12.502z M10.873,13.874h24.748
	c0.553,0,1-0.447,1-0.999c0-0.553-0.447-1-1-1H10.873c-0.553,0-1.002,0.447-1.002,1C9.871,13.427,10.32,13.874,10.873,13.874z"/>
</svg>
