<?xml version="1.0" encoding="utf-8"?>
<!-- Generator: Adobe Illustrator 13.0.0, SVG Export Plug-In . SVG Version: 6.00 Build 14948)  -->
<!DOCTYPE svg PUBLIC "-//W3C//DTD SVG 1.1//EN" "http://www.w3.org/Graphics/SVG/1.1/DTD/svg11.dtd">
<svg version="1.1" id="Layer_1" xmlns="http://www.w3.org/2000/svg" xmlns:xlink="http://www.w3.org/1999/xlink" x="0px" y="0px"
	 width="37px" height="25px" viewBox="0 0 37 25" enable-background="new 0 0 37 25" xml:space="preserve">
<path d="M36.33,11.792L25.146,0.607c-0.392-0.392-1.025-0.392-1.416,0c-0.39,0.392-0.39,1.025,0.002,1.417l10.475,10.475
	L23.729,22.977c-0.392,0.392-0.392,1.024,0,1.416c0.195,0.196,0.451,0.294,0.708,0.294c0.256,0,0.513-0.098,0.708-0.294
	L36.33,13.209c0.188-0.191,0.291-0.44,0.291-0.707C36.621,12.232,36.519,11.98,36.33,11.792z M27.129,12.875
	c0-0.553-0.449-1-1.002-1H1.379c-0.553,0-1,0.447-1,1c0,0.552,0.447,0.999,1,0.999h24.748C26.68,13.874,27.129,13.427,27.129,12.875
	z"/>
</svg>
