<?xml version="1.0" encoding="utf-8"?>
<!-- Generator: Adobe Illustrator 13.0.0, SVG Export Plug-In . SVG Version: 6.00 Build 14948)  -->
<!DOCTYPE svg PUBLIC "-//W3C//DTD SVG 1.1//EN" "http://www.w3.org/Graphics/SVG/1.1/DTD/svg11.dtd">
<svg version="1.1" id="Layer_1" xmlns="http://www.w3.org/2000/svg" xmlns:xlink="http://www.w3.org/1999/xlink" x="0px" y="0px"
	 width="68px" height="59px" viewBox="0 0 68 59" enable-background="new 0 0 68 59" xml:space="preserve">
<path d="M67.567,46.871l-1.789-4.387c-0.189-0.46-0.715-0.681-1.175-0.494c-0.46,0.189-0.681,0.715-0.491,1.175H64.11l0.998,2.444
	l-10.525-2.666c-0.017-0.035-0.021-0.074-0.043-0.107c-0.004-0.006-0.012-0.008-0.016-0.014V21.004h-0.065
	c0.062-0.153,0.083-0.322,0.052-0.49c-0.062-0.348-0.322-0.627-0.664-0.715l-23.405-5.972V2.978l2.138,2.087
	c0.176,0.171,0.403,0.256,0.63,0.256c0.233,0,0.467-0.09,0.644-0.27c0.347-0.356,0.339-0.925-0.016-1.272l-3.5-3.418
	c-0.329-0.321-0.844-0.343-1.199-0.052l-3.667,3c-0.384,0.313-0.442,0.88-0.127,1.267c0.315,0.384,0.882,0.442,1.267,0.127V4.7
	l2.031-1.661v10.937L12.33,25.396c-0.391,0.098-0.688,0.436-0.688,0.858v22.222l-9.337,6.529l0.165-2.537
	c0.032-0.496-0.346-0.923-0.841-0.955c-0.496-0.033-0.922,0.344-0.954,0.84H0.672l-0.306,4.729c-0.03,0.458,0.288,0.863,0.74,0.943
	l4.817,0.857c0.053,0.01,0.106,0.014,0.158,0.014c0.427,0,0.808-0.306,0.885-0.742c0.087-0.488-0.239-0.956-0.727-1.043l-3.033-0.54
	l9.408-6.579l23.285,6.05c0.074,0.019,0.15,0.028,0.227,0.028c0.176,0,0.351-0.051,0.501-0.151l16.972-11.37l11.016,2.792
	l-2.604,1.421c-0.438,0.238-0.6,0.784-0.36,1.222c0.163,0.3,0.472,0.47,0.792,0.47c0.146,0,0.293-0.035,0.43-0.109l4.293-2.342
	C67.569,47.78,67.742,47.295,67.567,46.871z M35.56,54.094l-22.118-5.745V27.275l22.118,5.889V54.094z M36.291,31.494l-21.398-5.695
	l14.745-10.32l21.844,5.573L36.291,31.494z M52.725,42.971L37.36,53.262V32.943l15.364-10.562V42.971z M25.042,41.467l0.01-0.007
	c0.367-0.25,0.412-0.673,0.168-1.03c-0.25-0.366-0.663-0.462-1.01-0.225c-0.348,0.236-0.419,0.663-0.168,1.029
	C24.284,41.592,24.706,41.697,25.042,41.467z M16.975,46.974l0.01-0.007c0.365-0.25,0.411-0.673,0.168-1.029
	c-0.25-0.367-0.664-0.463-1.011-0.226c-0.347,0.236-0.419,0.663-0.168,1.03C16.217,47.099,16.637,47.203,16.975,46.974z
	 M21.008,44.221l0.01-0.008c0.366-0.25,0.412-0.673,0.168-1.029c-0.25-0.367-0.664-0.462-1.01-0.226
	c-0.348,0.237-0.419,0.663-0.168,1.03C20.25,44.345,20.671,44.45,21.008,44.221z M39.345,40.612l0.012,0.003
	c0.432,0.101,0.773-0.152,0.871-0.573c0.101-0.432-0.109-0.801-0.519-0.896c-0.408-0.095-0.771,0.141-0.872,0.573
	C38.739,40.141,38.947,40.521,39.345,40.612z M34.587,39.509l0.012,0.002c0.432,0.101,0.774-0.151,0.872-0.572
	c0.101-0.433-0.109-0.801-0.519-0.896c-0.409-0.095-0.771,0.142-0.872,0.573C33.982,39.036,34.19,39.416,34.587,39.509z
	 M44.103,41.717l0.011,0.003c0.433,0.1,0.774-0.152,0.872-0.573c0.1-0.433-0.109-0.801-0.519-0.896
	c-0.409-0.096-0.771,0.141-0.872,0.572C43.497,41.245,43.704,41.625,44.103,41.717z M48.859,42.821l0.011,0.002
	c0.433,0.101,0.775-0.151,0.872-0.572c0.101-0.433-0.109-0.801-0.519-0.896c-0.408-0.095-0.771,0.142-0.871,0.573
	C48.255,42.349,48.462,42.729,48.859,42.821z M29.075,38.713l0.01-0.006c0.253-0.173,1.172-0.941,1.178-1.35v-0.012
	c0.006-0.443-0.314-0.724-0.746-0.73c-0.444-0.006-1.11,0.724-1.274,0.836c-0.347,0.236-0.418,0.664-0.168,1.03
	C28.318,38.838,28.739,38.943,29.075,38.713z M29.787,17.083c-0.444-0.006-0.76,0.277-0.766,0.697
	c-0.006,0.42,0.302,0.724,0.746,0.73c0.432,0.006,0.76-0.277,0.765-0.685v-0.012C30.538,17.369,30.218,17.089,29.787,17.083z
	 M29.719,21.966c-0.444-0.006-0.76,0.277-0.766,0.697c-0.006,0.42,0.302,0.724,0.746,0.73c0.432,0.006,0.759-0.277,0.765-0.685
	l0-0.012C30.471,22.252,30.151,21.972,29.719,21.966z M29.565,33.159c0.432,0.007,0.759-0.277,0.765-0.685v-0.012
	c0.006-0.443-0.314-0.725-0.746-0.73c-0.444-0.006-0.76,0.277-0.766,0.697S29.121,33.153,29.565,33.159z M29.652,26.849
	c-0.444-0.006-0.76,0.277-0.766,0.697c-0.006,0.419,0.302,0.724,0.746,0.729c0.432,0.006,0.759-0.277,0.765-0.685l0-0.012
	C30.403,27.136,30.083,26.855,29.652,26.849z"/>
</svg>
