<?xml version="1.0" encoding="utf-8"?>
<!-- Generator: Adobe Illustrator 13.0.0, SVG Export Plug-In . SVG Version: 6.00 Build 14948)  -->
<!DOCTYPE svg PUBLIC "-//W3C//DTD SVG 1.1//EN" "http://www.w3.org/Graphics/SVG/1.1/DTD/svg11.dtd">
<svg version="1.1" id="Layer_1" xmlns="http://www.w3.org/2000/svg" xmlns:xlink="http://www.w3.org/1999/xlink" x="0px" y="0px"
	 width="23px" height="43px" viewBox="0 0 23 43" enable-background="new 0 0 23 43" xml:space="preserve">
<path d="M0.539,42.714c-0.389-0.392-0.389-1.024,0-1.417l0,0l19.799-19.798L0.542,1.703L0.539,1.701l0.003,0.002
	C0.15,1.311,0.15,0.678,0.539,0.286l0,0c0.393-0.39,1.025-0.39,1.417,0l0,0l20.505,20.507c0.188,0.189,0.291,0.44,0.291,0.706l0,0
	c0,0.269-0.103,0.519-0.291,0.708l0,0L1.956,42.714c-0.195,0.194-0.452,0.292-0.708,0.292l0,0
	C0.991,43.006,0.735,42.908,0.539,42.714L0.539,42.714z"/>
</svg>
