<?xml version="1.0" encoding="utf-8"?>
<!-- Generator: Adobe Illustrator 13.0.0, SVG Export Plug-In . SVG Version: 6.00 Build 14948)  -->
<!DOCTYPE svg PUBLIC "-//W3C//DTD SVG 1.1//EN" "http://www.w3.org/Graphics/SVG/1.1/DTD/svg11.dtd">
<svg version="1.1" id="Layer_1" xmlns="http://www.w3.org/2000/svg" xmlns:xlink="http://www.w3.org/1999/xlink" x="0px" y="0px"
	 width="14px" height="22px" viewBox="0 0 14 22" enable-background="new 0 0 14 22" xml:space="preserve">
<path d="M13.376,14.439c-0.271-0.273-0.716-0.273-0.987,0l-0.002-0.002l-5.386,5.389l-5.387-5.389
	c-0.273-0.271-0.718-0.271-0.99,0.002c-0.273,0.273-0.273,0.717,0,0.99l5.883,5.879c0.132,0.133,0.307,0.207,0.494,0.207
	c0.187,0,0.361-0.074,0.495-0.207l5.88-5.881C13.649,15.156,13.649,14.713,13.376,14.439z M6.999,16.885
	c0.387,0,0.701-0.314,0.701-0.701v-15c0-0.387-0.314-0.699-0.701-0.699c-0.386,0-0.698,0.313-0.698,0.699v15
	C6.301,16.57,6.613,16.885,6.999,16.885z"/>
</svg>
