<?xml version="1.0" encoding="utf-8"?>
<!-- Generator: Adobe Illustrator 13.0.0, SVG Export Plug-In . SVG Version: 6.00 Build 14948)  -->
<!DOCTYPE svg PUBLIC "-//W3C//DTD SVG 1.1//EN" "http://www.w3.org/Graphics/SVG/1.1/DTD/svg11.dtd">
<svg version="1.1" id="Layer_1" xmlns="http://www.w3.org/2000/svg" xmlns:xlink="http://www.w3.org/1999/xlink" x="0px" y="0px"
	 width="248px" height="43px" viewBox="0 0 248 43" enable-background="new 0 0 248 43" xml:space="preserve">
<g>
	<g>
		<path fill="#020202" d="M27.341,26.627c0,4.277-1.221,7.988-3.662,11.133c-2.442,3.145-5.782,4.717-10.02,4.717
			c-3.594,0-6.035-0.645-7.324-1.934H6.101l-0.732,1.143H1.062c0.253-6.738,0.381-14.023,0.381-21.855
			c0-7.07-0.322-13.525-0.967-19.365l5.801-0.293C6.081,3.531,5.983,8.854,5.983,16.139h0.234c1.914-2.207,4.951-3.311,9.111-3.311
			c3.613,0,6.519,1.348,8.716,4.043S27.341,22.818,27.341,26.627z M22.126,27.33c0-2.949-0.772-5.439-2.314-7.471
			c-1.543-2.031-3.672-3.047-6.387-3.047c-3.516,0-6.035,1.065-7.559,3.193c0,6.953,0.156,12.588,0.469,16.904
			c1.582,1.328,3.643,1.992,6.182,1.992c3.203,0,5.605-1.123,7.207-3.369C21.325,33.287,22.126,30.553,22.126,27.33z"/>
		<path fill="#020202" d="M75.256,26.92c0,5-1.436,8.902-4.307,11.704c-2.871,2.803-6.25,4.204-10.137,4.204
			c-3.633,0-6.753-1.24-9.36-3.721s-3.911-5.977-3.911-10.488c0-5.039,1.44-8.975,4.321-11.807
			c2.881-2.832,6.265-4.248,10.151-4.248c3.633,0,6.748,1.255,9.346,3.765C73.957,18.839,75.256,22.369,75.256,26.92z
			 M70.188,27.945c0-3.047-0.767-5.757-2.3-8.13c-1.534-2.373-3.716-3.56-6.548-3.56c-2.813,0-4.976,1.124-6.489,3.369
			c-1.514,2.246-2.271,4.854-2.271,7.822c0,3.066,0.766,5.781,2.3,8.145c1.533,2.363,3.725,3.545,6.577,3.545
			c2.813,0,4.97-1.128,6.475-3.384C69.436,33.497,70.188,30.895,70.188,27.945z"/>
		<path fill="#020202" d="M114.119,13.854l-1.318,4.658c-1.523-0.605-2.94-0.908-4.248-0.908c-3.672,0-6.055,1.748-7.148,5.244
			c0,8.984,0.059,15.264,0.176,18.838h-5.186c0.312-6.191,0.469-10.996,0.469-14.414c0-4.629-0.459-9.063-1.377-13.301l5.127-0.732
			c0.371,2.149,0.557,3.584,0.557,4.307h0.234c2.109-3.105,4.57-4.658,7.383-4.658C110.271,12.887,112.049,13.209,114.119,13.854z"
			/>
		<path fill="#020202" d="M156.791,41.656l-4.541,0.176c-0.274-1.094-0.41-1.992-0.41-2.695h-0.293
			c-2.598,2.188-5.753,3.281-9.463,3.281c-3.38,0-5.835-0.815-7.368-2.446c-1.533-1.63-2.3-4.917-2.3-9.858
			c0-0.703,0.019-1.748,0.059-3.135c0.039-1.387,0.059-2.334,0.059-2.842c0-2.871-0.166-6.25-0.498-10.137l5.449-0.205
			c-0.234,3.77-0.352,6.992-0.352,9.668c0,6.152,0.396,10.162,1.187,12.026c0.791,1.865,2.573,2.798,5.347,2.798
			c3.124,0,5.702-0.781,7.734-2.344c0-10.859-0.099-18.174-0.293-21.943l5.273-0.205c-0.157,3.672-0.234,8.75-0.234,15.234
			C156.146,33.189,156.361,37.398,156.791,41.656z"/>
		<path fill="#020202" d="M203.446,41.686h-5.332c0.43-5.137,0.645-10.742,0.645-16.816c0-3.008-0.61-5.063-1.83-6.167
			c-1.221-1.103-2.965-1.655-5.23-1.655c-2.773,0-5.332,1.006-7.676,3.018c0,6.66,0.039,13.867,0.117,21.621h-5.332
			c0.332-6.641,0.498-11.445,0.498-14.414c0-4.57-0.43-9.004-1.289-13.301l5.156-0.732l0.557,3.574h0.234
			c2.891-2.617,5.986-3.926,9.287-3.926c3.242,0,5.752,0.718,7.529,2.153s2.666,3.989,2.666,7.661c0,0.371-0.02,1.104-0.059,2.197
			s-0.059,1.826-0.059,2.197C203.329,30.357,203.368,35.221,203.446,41.686z"/>
		<path fill="#020202" d="M247.524,41.686l-4.6,0.176c-0.234-0.957-0.352-1.865-0.352-2.725h-0.293
			c-2.402,2.188-5.674,3.281-9.814,3.281c-2.246,0-4.18-0.659-5.801-1.978s-2.432-3.198-2.432-5.64c0-3.008,1.27-5.424,3.809-7.251
			c2.539-1.826,7.256-2.788,14.15-2.886c0.059-0.469,0.088-1.006,0.088-1.611c0-2.402-0.641-4.003-1.919-4.805
			c-1.279-0.801-3.218-1.201-5.815-1.201c-3.066,0-6.084,0.381-9.053,1.143l0.498-4.043c2.93-0.839,6.299-1.26,10.107-1.26
			c3.477,0,6.162,0.718,8.057,2.153s2.842,3.882,2.842,7.339c0,0.918-0.044,2.583-0.132,4.995c-0.088,2.413-0.132,4.019-0.132,4.819
			C246.733,35.748,246.997,38.912,247.524,41.686z M242.339,36.002c-0.098-2.969-0.146-5.635-0.146-7.998
			c-3.672,0-6.465,0.273-8.379,0.82c-3.203,0.977-4.805,2.842-4.805,5.596c0,2.656,1.875,3.984,5.625,3.984
			C237.856,38.404,240.425,37.604,242.339,36.002z"/>
	</g>
</g>
</svg>
