<?xml version="1.0" encoding="utf-8"?>
<!-- Generator: Adobe Illustrator 13.0.0, SVG Export Plug-In . SVG Version: 6.00 Build 14948)  -->
<!DOCTYPE svg PUBLIC "-//W3C//DTD SVG 1.1//EN" "http://www.w3.org/Graphics/SVG/1.1/DTD/svg11.dtd">
<svg version="1.1" id="Layer_1" xmlns="http://www.w3.org/2000/svg" xmlns:xlink="http://www.w3.org/1999/xlink" x="0px" y="0px"
	 width="50px" height="50px" viewBox="0 0 50 50" enable-background="new 0 0 50 50" xml:space="preserve">
<path d="M38.619,24.844c-0.033-1.751-1.52-2.961-3.24-3.129c-0.168-0.53-0.375-1.041-0.623-1.529c0.709-0.75,1.088-1.693,1.09-2.629
	c0.004-0.773-0.273-1.56-0.857-2.143c-0.586-0.587-1.373-0.864-2.145-0.862c-0.943,0.002-1.893,0.387-2.641,1.104
	c-0.545-0.274-1.119-0.503-1.717-0.677c-0.109-1.805-1.385-3.382-3.205-3.41c-1.901,0.029-3.21,1.747-3.214,3.65v0.01
	c-0.376,0.143-0.74,0.308-1.093,0.491l-0.085-0.085c-0.769-0.767-1.751-1.184-2.729-1.187c-0.746-0.004-1.517,0.261-2.083,0.837
	c-0.566,0.56-0.833,1.327-0.829,2.077c0.002,0.976,0.42,1.958,1.187,2.727l0.106,0.107c-0.241,0.479-0.446,0.979-0.611,1.499h-0.462
	c-1.888,0.002-3.615,1.261-3.65,3.15c0.035,1.886,1.763,3.146,3.65,3.15h0.5c0.153,0.463,0.338,0.91,0.553,1.342l-0.175,0.176
	c-0.759,0.758-1.168,1.734-1.17,2.707c-0.004,0.771,0.271,1.561,0.86,2.145c0.582,0.588,1.372,0.859,2.143,0.857
	c0.972-0.002,1.945-0.412,2.708-1.164l0.165-0.166c0.327,0.168,0.665,0.318,1.015,0.449v0.379c0.004,1.904,1.313,3.621,3.214,3.65
	c1.9-0.029,3.208-1.746,3.212-3.65v-0.131c0.609-0.178,1.193-0.412,1.746-0.693c0.766,0.752,1.738,1.164,2.709,1.168
	c0.748,0.002,1.514-0.262,2.08-0.832c0.572-0.57,0.834-1.336,0.832-2.082c-0.004-0.965-0.408-1.928-1.145-2.688
	c0.244-0.475,0.453-0.971,0.623-1.484C37.076,27.82,38.586,26.607,38.619,24.844z M33.961,26.193l-0.174,0.678
	c-0.207,0.813-0.531,1.578-0.957,2.275l-0.371,0.604l0.945,0.945c0.447,0.443,0.66,1.004,0.658,1.453
	c-0.006,0.35-0.109,0.613-0.305,0.811c-0.195,0.193-0.463,0.299-0.809,0.303c-0.449,0.002-1.006-0.209-1.453-0.656l-0.461-0.461
	l-0.496-0.494l-0.602,0.357c-0.775,0.463-1.625,0.809-2.531,1l-0.713,0.15v1.561c-0.006,1.133-0.76,1.848-1.412,1.85
	c-0.653-0.002-1.407-0.717-1.413-1.85v-1.691l-0.644-0.193c-0.657-0.197-1.279-0.48-1.87-0.83l-0.602-0.359l-1.137,1.137
	c-0.438,0.436-0.983,0.643-1.437,0.641c-0.367-0.002-0.655-0.119-0.87-0.332c-0.217-0.219-0.33-0.504-0.335-0.871
	c0-0.455,0.207-1,0.644-1.436l0.65-0.65l0.492-0.492l-0.352-0.602c-0.395-0.67-0.696-1.395-0.893-2.168l-0.174-0.678h-1.874
	c-1.151-0.006-1.851-0.751-1.851-1.349c0-0.597,0.699-1.345,1.851-1.35h1.852l0.167-0.69c0.201-0.824,0.52-1.598,0.94-2.309
	l0.357-0.601l-1.078-1.079c-0.451-0.448-0.659-1.006-0.659-1.453c0.004-0.349,0.111-0.611,0.306-0.808
	c0.194-0.196,0.456-0.304,0.808-0.306c0.449-0.004,1.009,0.209,1.455,0.657l1.068,1.068l0.606-0.366
	c0.605-0.37,1.252-0.667,1.937-0.872l0.641-0.194v-1.323c0.006-1.135,0.76-1.85,1.413-1.85c0.652,0,1.406,0.715,1.412,1.85v1.192
	l0.713,0.151c0.891,0.19,1.73,0.527,2.502,0.98l0.598,0.354l0.904-0.901c0.432-0.438,0.977-0.645,1.434-0.643
	c0.365,0.004,0.654,0.12,0.871,0.333c0.213,0.215,0.328,0.506,0.33,0.872c0.002,0.455-0.203,1-0.641,1.437l-0.398,0.397
	l-0.496,0.496l0.359,0.604c0.426,0.711,0.746,1.488,0.947,2.314l0.164,0.69h0.988c1.15,0.004,1.848,0.752,1.85,1.35
	c-0.002,0.598-0.699,1.343-1.85,1.349H33.961z M25.218,19.507c-3.017,0-5.462,2.444-5.462,5.461c0,3.018,2.445,5.463,5.462,5.463
	c3.016,0,5.461-2.445,5.463-5.463C30.68,21.951,28.234,19.507,25.218,19.507z M25.218,28.631c-2.021-0.004-3.659-1.639-3.663-3.663
	c0.004-2.021,1.642-3.659,3.663-3.661c2.022,0.002,3.659,1.64,3.663,3.661C28.877,26.992,27.24,28.627,25.218,28.631z M25.001,2.087
	c8.663,0,16.194,4.813,20.086,11.907l-3.607-0.69c-0.488-0.093-0.959,0.226-1.053,0.716c-0.094,0.486,0.227,0.958,0.715,1.051
	l5.875,1.125c0.057,0.011,0.113,0.016,0.17,0.016c0.424,0,0.799-0.297,0.883-0.728l1.125-5.749c0.096-0.488-0.223-0.962-0.711-1.055
	c-0.486-0.095-0.961,0.221-1.055,0.71h-0.002l-0.738,3.779C42.494,5.498,34.359,0.289,25.001,0.287
	C11.35,0.289,0.288,11.352,0.288,25h1.8C2.11,12.347,12.345,2.111,25.001,2.087z M47.912,25C47.889,37.654,37.654,47.889,25,47.912
	c-8.945,0-16.68-5.131-20.456-12.602l3.973,0.762c0.487,0.092,0.959-0.227,1.054-0.715s-0.227-0.959-0.715-1.055l-5.875-1.125
	c-0.486-0.092-0.958,0.225-1.053,0.711l-1.125,5.75c-0.095,0.488,0.223,0.963,0.711,1.057c0.059,0.012,0.118,0.018,0.176,0.018
	c0.421,0,0.798-0.299,0.881-0.729l0.646-3.309C7.384,44.434,15.576,49.711,25,49.713c13.648,0,24.71-11.064,24.712-24.712H47.912z"
	/>
</svg>
