<?xml version="1.0" encoding="utf-8"?>
<!-- Generator: Adobe Illustrator 13.0.0, SVG Export Plug-In . SVG Version: 6.00 Build 14948)  -->
<!DOCTYPE svg PUBLIC "-//W3C//DTD SVG 1.1//EN" "http://www.w3.org/Graphics/SVG/1.1/DTD/svg11.dtd">
<svg version="1.1" id="Layer_1" xmlns="http://www.w3.org/2000/svg" xmlns:xlink="http://www.w3.org/1999/xlink" x="0px" y="0px"
	 width="53px" height="53px" viewBox="0 0 53 53" enable-background="new 0 0 53 53" xml:space="preserve">
<path d="M52.44,1.718l-1.375-1.375c-0.325-0.325-0.843-0.354-1.2-0.064l-7.788,6.25c-0.198,0.16-0.321,0.398-0.336,0.651
	c-0.011,0.212,0.054,0.423,0.181,0.592L23.673,26.02l-1.668-1.687c-0.169-0.172-0.395-0.267-0.636-0.267
	c-0.24-0.002-0.468,0.092-0.64,0.262l-1.818,1.82l-0.199,0.3l-0.658,1.638l-1.54,0.575l-0.322,0.207l-1.767,1.766
	c-0.246,0.246-0.313,0.601-0.212,0.912L1.5,44.254C0.703,45.05,0.293,46.1,0.296,47.139c-0.003,0.99,0.371,1.992,1.129,2.746
	l1.781,1.783c0.752,0.754,1.752,1.128,2.742,1.128c1.039,0,2.086-0.41,2.885-1.202l12.531-12.467c0.096,0.036,0.194,0.064,0.3,0.066
	h0.016c0.237,0,0.463-0.095,0.633-0.263l1.726-1.71c0.105-0.104,0.185-0.236,0.228-0.377l0.623-2.049l1.867-0.447
	c0.161-0.041,0.303-0.12,0.423-0.236l1.633-1.617c0.17-0.17,0.267-0.395,0.267-0.635c0.002-0.24-0.09-0.469-0.26-0.638l-1.774-1.794
	l18.284-18.282c0.152,0.086,0.328,0.126,0.506,0.115c0.259-0.02,0.5-0.149,0.657-0.358l6.031-8.006
	C52.793,2.539,52.757,2.035,52.44,1.718z M7.564,50.316c-0.459,0.455-1.046,0.678-1.616,0.678c-0.548-0.002-1.069-0.199-1.469-0.599
	l-1.784-1.784c-0.403-0.403-0.599-0.923-0.601-1.473c0-0.573,0.223-1.156,0.678-1.612l12.609-12.603l0.708,0.752l0.333,1.517
	L5.938,45.678c-0.353,0.35-0.353,0.92,0,1.272c0.176,0.176,0.405,0.264,0.636,0.264s0.46-0.088,0.637-0.264l10.423-10.424
	l1.773,0.668l0.652,0.692L7.564,50.316z M26.09,32.656l-2.121,0.512c-0.312,0.073-0.559,0.308-0.65,0.612l-0.709,2.321L21.7,37.004
	l-1.126-1.195l-0.337-0.226l-2.055-0.773l-0.384-1.762c-0.037-0.157-0.116-0.308-0.226-0.425l-1.258-1.335l1.011-1.008l1.729-0.645
	c0.236-0.09,0.427-0.272,0.521-0.509l0.735-1.838l1.051-1.046l5.543,5.605L26.09,32.656z M45.629,9.056
	c-0.103-0.039-0.212-0.06-0.322-0.06c-0.237,0-0.47,0.095-0.638,0.263L26.125,27.803l-0.845-0.845L43.824,8.414
	c0.17-0.17,0.263-0.394,0.263-0.636c0-0.163-0.043-0.319-0.124-0.457l6.4-5.136l0.25,0.252L45.629,9.056z M4.879,16.893
	c1.329,1.33,3.075,1.993,4.813,1.993c0.968,0,1.937-0.206,2.838-0.612l5.574,5.591l1.274-1.27l-6.527-6.546l-0.598,0.348
	c-0.792,0.458-1.679,0.687-2.562,0.687c-1.285,0-2.559-0.483-3.54-1.465l-2.163-2.163c-0.874-0.873-1.354-1.975-1.457-3.113
	l3.493,3.493c0.55,0.552,1.282,0.831,2.007,0.831c0.721,0,1.451-0.279,2.003-0.831l3.644-3.641c0.55-0.554,0.829-1.282,0.829-2.006
	c0-0.722-0.277-1.454-0.829-2.004l-3.495-3.493c1.138,0.102,2.241,0.584,3.114,1.455l2.163,2.163
	c0.981,0.981,1.467,2.257,1.467,3.546c0,0.897-0.238,1.798-0.711,2.597l-0.358,0.601l8.851,8.847l1.274-1.271H25.98l-7.887-7.887
	c0.423-0.915,0.634-1.901,0.634-2.886c0.002-1.742-0.663-3.49-1.993-4.817l-2.163-2.165C13.236,1.54,11.479,0.87,9.732,0.872
	c-0.597,0-1.193,0.077-1.773,0.232L6.457,1.51l5.947,5.947c0.204,0.204,0.303,0.464,0.303,0.732c0,0.267-0.099,0.529-0.305,0.735
	l-3.639,3.638c-0.203,0.204-0.466,0.303-0.731,0.303c-0.271,0-0.531-0.099-0.732-0.3L1.346,6.613L0.944,8.121
	c-0.152,0.578-0.232,1.172-0.232,1.77c0,1.746,0.666,3.503,2.006,4.839L4.879,16.893z M48.343,36.898
	c-1.327-1.33-3.075-1.995-4.817-1.993c-0.985,0-1.972,0.211-2.886,0.634l-7.888-7.887v-0.003l-1.271,1.274l8.847,8.851l0.602-0.358
	c0.799-0.473,1.699-0.711,2.597-0.711c1.288,0,2.564,0.485,3.546,1.467l2.163,2.163c0.871,0.873,1.353,1.977,1.455,3.114
	l-3.493-3.495c-0.551-0.552-1.282-0.829-2.004-0.829c-0.725,0-1.452,0.279-2.006,0.829l-3.641,3.644
	c-0.553,0.552-0.832,1.282-0.832,2.003c0,0.725,0.279,1.457,0.832,2.007l3.492,3.493c-1.137-0.103-2.24-0.583-3.112-1.457
	l-2.163-2.163c-0.981-0.981-1.465-2.255-1.465-3.54c0-0.883,0.23-1.77,0.688-2.562l0.348-0.598l-6.546-6.527l-1.27,1.274
	l5.591,5.574c-0.406,0.901-0.612,1.87-0.612,2.838c0,1.738,0.663,3.484,1.993,4.813l2.163,2.161c1.336,1.34,3.093,2.006,4.839,2.006
	c0.598,0,1.191-0.08,1.77-0.232l1.508-0.401l-5.951-5.954c-0.202-0.201-0.301-0.461-0.301-0.732c0-0.266,0.099-0.528,0.303-0.731
	l3.639-3.639c0.205-0.206,0.468-0.305,0.734-0.305c0.268,0,0.528,0.099,0.732,0.303l5.947,5.947l0.406-1.502
	c0.154-0.58,0.231-1.177,0.231-1.773c0.002-1.746-0.668-3.504-2.002-4.839L48.343,36.898z"/>
</svg>
