<svg xmlns="http://www.w3.org/2000/svg" class="svg-inline--fa fa-phone-alt fa-w-16 fa-9x" role="img" aria-hidden="true" viewBox="0 0 512 512" focusable="false" data-prefix="fas" data-icon="phone-alt"><path class="" fill="currentColor" d="M 497.39 361.8 l -112 -48 a 24 24 0 0 0 -28 6.9 l -49.6 60.6 A 370.66 370.66 0 0 1 130.6 204.11 l 60.6 -49.6 a 23.94 23.94 0 0 0 6.9 -28 l -48 -112 A 24.16 24.16 0 0 0 122.6 0.61 l -104 24 A 24 24 0 0 0 0 48 c 0 256.5 207.9 464 464 464 a 24 24 0 0 0 23.4 -18.6 l 24 -104 a 24.29 24.29 0 0 0 -14.01 -27.6 Z"/></svg>