<?xml version="1.0" encoding="utf-8"?>
<!-- Generator: Adobe Illustrator 13.0.0, SVG Export Plug-In . SVG Version: 6.00 Build 14948)  -->
<!DOCTYPE svg PUBLIC "-//W3C//DTD SVG 1.1//EN" "http://www.w3.org/Graphics/SVG/1.1/DTD/svg11.dtd">
<svg version="1.1" id="Layer_1" xmlns="http://www.w3.org/2000/svg" xmlns:xlink="http://www.w3.org/1999/xlink" x="0px" y="0px"
	 width="21px" height="33px" viewBox="0 0 21 33" enable-background="new 0 0 21 33" xml:space="preserve">
<path d="M10.501,0.134C4.824,0.144,0.144,4.51,0.133,10.022v12.955c0.011,5.513,4.691,9.88,10.368,9.889
	c5.676-0.009,10.356-4.376,10.366-9.889V10.022C20.857,4.51,16.177,0.144,10.501,0.134z M18.468,22.978
	c-0.009,4.086-3.521,7.484-7.967,7.489c-4.448-0.005-7.96-3.403-7.968-7.489V10.022c0.008-4.086,3.52-7.484,7.968-7.489
	c4.446,0.004,7.958,3.403,7.967,7.489V22.978z M10.75,6.134c-0.662,0-1.199,0.537-1.199,1.199v5.251
	c0,0.662,0.537,1.199,1.199,1.199s1.2-0.537,1.2-1.199V7.333C11.95,6.671,11.412,6.134,10.75,6.134z"/>
</svg>
