<?xml version="1.0" encoding="utf-8"?>
<!-- Generator: Adobe Illustrator 13.0.0, SVG Export Plug-In . SVG Version: 6.00 Build 14948)  -->
<!DOCTYPE svg PUBLIC "-//W3C//DTD SVG 1.1//EN" "http://www.w3.org/Graphics/SVG/1.1/DTD/svg11.dtd">
<svg version="1.1" id="Layer_1" xmlns="http://www.w3.org/2000/svg" xmlns:xlink="http://www.w3.org/1999/xlink" x="0px" y="0px"
	 width="61px" height="56px" viewBox="0 0 61 56" enable-background="new 0 0 61 56" xml:space="preserve">
<path d="M7.416,26.93c0.095,0.032,0.192,0.048,0.289,0.048c0.275,0,0.542-0.127,0.715-0.354l2.765-3.61h22.317
	c2.175-0.002,3.936-1.762,3.938-3.937V18.68h12.407l2.907,2.752c0.171,0.162,0.395,0.247,0.621,0.247
	c0.119,0,0.239-0.024,0.352-0.072c0.331-0.142,0.546-0.469,0.546-0.828V4.987c-0.002-2.636-2.139-4.773-4.773-4.773H28.745
	c-2.592,0-4.688,2.068-4.76,4.643H10.74c-2.173,0-3.936,1.762-3.936,3.936v17.284C6.805,26.463,7.051,26.806,7.416,26.93z
	 M25.771,6.657h6.731c0.497,0,0.9-0.403,0.9-0.9c0-0.496-0.403-0.899-0.9-0.899h-6.718c0.073-1.581,1.364-2.84,2.96-2.844h20.753
	c1.641,0.004,2.971,1.331,2.973,2.974v13.701l-1.646-1.562c-0.168-0.157-0.389-0.246-0.619-0.246H37.438v-3.088
	c0-0.496-0.403-0.899-0.899-0.899c-0.498,0-0.902,0.403-0.902,0.899v3.088h-9.866V6.657z M8.604,8.793
	c0.002-1.179,0.958-2.134,2.136-2.136h13.231v11.125c0,0.236,0.097,0.469,0.264,0.635c0.168,0.168,0.399,0.264,0.637,0.264h10.765
	v0.397c-0.002,1.179-0.955,2.134-2.136,2.136H10.74c-0.279,0-0.545,0.13-0.713,0.353l-1.423,1.855V8.793z M37.795,5.602
	c-0.375-0.327-0.942-0.287-1.27,0.089l-6.033,6.937l-2.485-2.483c-0.352-0.352-0.921-0.352-1.273,0
	c-0.351,0.351-0.351,0.921,0.002,1.272h-0.002l3.168,3.167c0.168,0.169,0.394,0.264,0.633,0.264c0.011,0,0.023,0,0.035,0
	c0.25-0.008,0.482-0.12,0.647-0.308l6.668-7.667C38.209,6.496,38.169,5.927,37.795,5.602z M20.877,42.213
	c1.577-1.592,2.557-3.814,2.561-6.268c-0.008-4.793-3.73-8.727-8.4-8.733c-4.671,0.006-8.392,3.94-8.399,8.733
	c0.004,2.447,0.979,4.666,2.549,6.256c-5.048,0.844-8.874,5.332-8.882,10.727v1.957c0,0.496,0.403,0.9,0.901,0.9
	c0.497,0,0.899-0.404,0.899-0.9v-1.957c0.002-5.035,3.956-9.072,8.788-9.082c0.142,0,0.271-0.039,0.39-0.098
	c1.128,0.59,2.399,0.93,3.755,0.932c1.338-0.002,2.593-0.334,3.711-0.908c0.11,0.047,0.23,0.076,0.358,0.076
	c4.831,0.01,8.785,4.045,8.787,9.08v1.688c0,0.496,0.403,0.898,0.901,0.898c0.497,0,0.901-0.402,0.901-0.898v-1.688
	C29.685,47.557,25.892,43.082,20.877,42.213z M15.038,42.881c-3.614-0.008-6.596-3.076-6.6-6.936c0.004-3.857,2.986-6.926,6.6-6.932
	c3.614,0.006,6.597,3.074,6.601,6.932C21.635,39.805,18.652,42.873,15.038,42.881z M51.877,42.211
	c1.576-1.59,2.557-3.813,2.562-6.266c-0.01-4.793-3.73-8.727-8.399-8.733c-4.671,0.006-8.393,3.94-8.402,8.733
	c0.006,2.447,0.98,4.666,2.551,6.256c-5.047,0.844-8.873,5.332-8.882,10.727v1.957c0,0.496,0.403,0.9,0.899,0.9
	c0.498,0,0.9-0.404,0.9-0.9v-1.957c0.002-5.035,3.956-9.072,8.787-9.082c0.142,0,0.271-0.039,0.391-0.098
	c1.129,0.59,2.4,0.93,3.756,0.932c1.338-0.002,2.593-0.334,3.71-0.908c0.11,0.047,0.231,0.076,0.358,0.076
	c4.832,0.01,8.785,4.045,8.787,9.08v1.688c0,0.496,0.403,0.898,0.899,0.898c0.498,0,0.901-0.402,0.901-0.898v-1.688
	C60.685,47.557,56.891,43.082,51.877,42.211z M46.039,42.881c-3.614-0.008-6.599-3.076-6.601-6.936
	c0.002-3.857,2.986-6.926,6.601-6.932c3.613,0.006,6.596,3.074,6.598,6.932C52.635,39.805,49.652,42.873,46.039,42.881z"/>
</svg>
